<svg xmlns="http://www.w3.org/2000/svg" version="1.1" width="24px" height="24px" viewBox="0 0 24 24" xml:space="preserve">

  <path id="outline" stroke-width="0.5pt" stroke-linejoin="round" stroke="#5b5b5b" opacity="0" fill="none" stroke-miterlimit="10" d="M11.366 12.928c-.729-.516-1.393-1.273-1.404-1.505 0-.425.038-.627.988-1.368 1.229-.962 1.906-2.228 1.906-3.564 0-1.212-.37-2.289-1.001-3.044h.488c.102 0 .2-.033.282-.091l1.364-.989c.169-.121.24-.338.176-.536-.063-.196-.247-.331-.456-.331h-6.101c-.667 0-1.345.118-2.011.347-2.225.766-3.778 2.66-3.778 4.605 0 2.755 2.134 4.845 4.987 4.91-.056.22-.084.434-.084.645 0 .425.108.827.33 1.216h-.079c-2.72 0-5.175 1.334-6.107 3.32-.243.517-.366 1.039-.366 1.555 0 .501.129.984.382 1.438.585 1.046 1.843 1.861 3.544 2.289.877.223 1.82.335 2.8.335.88 0 1.718-.114 2.494-.338 2.419-.702 3.981-2.482 3.981-4.538 0-1.972-.633-3.152-2.335-4.356zm-7.706 4.515c0-1.435 1.823-2.693 3.899-2.693h.057c.451.005.892.072 1.309.2l.412.282c.962.656 1.597 1.088 1.774 1.783.041.175.063.35.063.519 0 1.787-1.333 2.693-3.961 2.693-1.992-.002-3.553-1.225-3.553-2.784zm1.891-13.553c.324-.371.75-.566 1.227-.566h.055c1.349.041 2.639 1.543 2.876 3.349.133 1.013-.092 1.964-.601 2.544-.326.372-.745.566-1.242.566h-.022000000000000002c-1.321-.04-2.639-1.6-2.875-3.405-.133-1.008.08-1.916.582-2.488zM23.5 9.5h-3v-3h-2v3h-3v2h3v3h2v-3h3z">

    <animate fill="freeze" dur="0.25s" attributeName="opacity" from="0" to="1" begin="filled.mouseover"/>
    <animate fill="freeze" dur="0.25s" attributeName="opacity" from="1" to="0" begin="filled.mouseout"/>

  </path>  

  <g id="filled">
    <path fill="#5b5b5b" d="M11.366,12.928c-0.729-0.516-1.393-1.273-1.404-1.505c0-0.425,0.038-0.627,0.988-1.368 c1.229-0.962,1.906-2.228,1.906-3.564c0-1.212-0.37-2.289-1.001-3.044h0.488c0.102,0,0.2-0.033,0.282-0.091l1.364-0.989 c0.169-0.121,0.24-0.338,0.176-0.536C14.102,1.635,13.918,1.5,13.709,1.5H7.608c-0.667,0-1.345,0.118-2.011,0.347 c-2.225,0.766-3.778,2.66-3.778,4.605c0,2.755,2.134,4.845,4.987,4.91c-0.056,0.22-0.084,0.434-0.084,0.645 c0,0.425,0.108,0.827,0.33,1.216c-0.026,0-0.051,0-0.079,0c-2.72,0-5.175,1.334-6.107,3.32C0.623,17.06,0.5,17.582,0.5,18.098 c0,0.501,0.129,0.984,0.382,1.438c0.585,1.046,1.843,1.861,3.544,2.289c0.877,0.223,1.82,0.335,2.8,0.335 c0.88,0,1.718-0.114,2.494-0.338c2.419-0.702,3.981-2.482,3.981-4.538C13.701,15.312,13.068,14.132,11.366,12.928z M3.66,17.443 c0-1.435,1.823-2.693,3.899-2.693h0.057c0.451,0.005,0.892,0.072,1.309,0.2c0.142,0.098,0.28,0.192,0.412,0.282 c0.962,0.656,1.597,1.088,1.774,1.783c0.041,0.175,0.063,0.35,0.063,0.519c0,1.787-1.333,2.693-3.961,2.693 C5.221,20.225,3.66,19.002,3.66,17.443z M5.551,3.89c0.324-0.371,0.75-0.566,1.227-0.566l0.055,0 c1.349,0.041,2.639,1.543,2.876,3.349c0.133,1.013-0.092,1.964-0.601,2.544C8.782,9.589,8.363,9.783,7.866,9.783H7.865H7.844 c-1.321-0.04-2.639-1.6-2.875-3.405C4.836,5.37,5.049,4.462,5.551,3.89z"/>
    
    <polygon fill="#5b5b5b" points="23.5,9.5 20.5,9.5 20.5,6.5 18.5,6.5 18.5,9.5 15.5,9.5 15.5,11.5 18.5,11.5 18.5,14.5 20.5,14.5 20.5,11.5 23.5,11.5"/>

    <animate fill="freeze" dur="0.25s" attributeName="opacity" from="1" to="0" begin="mouseover"/>
    <animate fill="freeze" dur="0.25s" attributeName="opacity" from="0" to="1" begin="mouseout"/>
  </g>

</svg>