<svg xmlns="http://www.w3.org/2000/svg" version="1.1" width="24px" height="24px" viewBox="0 0 24 24" xml:space="preserve">

  <path id="outline" stroke-width="0.5pt" stroke-linejoin="round" stroke="#5b5b5b" opacity="0" fill="none" stroke-miterlimit="10" d="M6.5 21.5h-5v-13h5v13zm-2.51-15h-.029c-1.511 0-2.488-1.182-2.488-2.481 0-1.329 1.008-2.412 2.547-2.412 1.541 0 2.488 1.118 2.519 2.447-.001 1.3-.978 2.446-2.549 2.446zm11.51 6c-1.105 0-2 .896-2 2v7h-5s.059-12 0-13h5v1.485s1.548-1.443 3.938-1.443c2.962 0 5.062 2.144 5.062 6.304v6.654h-5v-7c0-1.104-.896-2-2-2z">

    <animate fill="freeze" dur="0.25s" attributeName="opacity" from="0" to="1" begin="filled.mouseover"/>
    <animate fill="freeze" dur="0.25s" attributeName="opacity" from="1" to="0" begin="filled.mouseout"/>

  </path>  

  <path id="filled" fill="#5b5b5b" stroke-miterlimit="10" d="M6.527,21.5h-5v-13h5V21.5z M4.018,6.5H3.988C2.478,6.5,1.5,5.318,1.5,4.019c0-1.329,1.008-2.412,2.547-2.412 c1.541,0,2.488,1.118,2.519,2.447C6.565,5.354,5.588,6.5,4.018,6.5z M15.527,12.5c-1.105,0-2,0.896-2,2v7h-5c0,0,0.059-12,0-13h5 v1.485c0,0,1.548-1.443,3.938-1.443c2.962,0,5.062,2.144,5.062,6.304V21.5h-5v-7C17.527,13.396,16.632,12.5,15.527,12.5z">

    <animate fill="freeze" dur="0.25s" attributeName="opacity" from="1" to="0" begin="mouseover"/>
    <animate fill="freeze" dur="0.25s" attributeName="opacity" from="0" to="1" begin="mouseout"/>

  </path>

</svg>