<svg xmlns="http://www.w3.org/2000/svg" version="1.1" width="24px" height="24px" viewBox="0 0 24 24" xml:space="preserve">

  <path id="outline" stroke-width="0.5pt" stroke-linejoin="round" stroke="#5b5b5b" opacity="0" fill="none" stroke-miterlimit="10" d="M23.5 18c0 .828-.672 1.5-1.5 1.5h-20c-.828 0-1.5-.672-1.5-1.5v-12c0-.829.672-1.5 1.5-1.5h20c.828 0 1.5.671 1.5 1.5v12zM20.5 8.5l-8.5 5.5-8.5-5.5M3.5 16l3.5-2M20.5 16l-3.5-2">

    <animate fill="freeze" dur="0.25s" attributeName="opacity" from="0" to="1" begin="filled.mouseover"/>
    <animate fill="freeze" dur="0.25s" attributeName="opacity" from="1" to="0" begin="filled.mouseout"/>

  </path>  

  <path id="filled" fill="#5b5b5b" stroke-miterlimit="10" d="M22,4H2C0.897,4,0,4.897,0,6v12c0,1.103,0.897,2,2,2h20c1.103,0,2-0.897,2-2V6C24,4.897,23.103,4,22,4z M7.248,14.434 l-3.5,2C3.67,16.479,3.584,16.5,3.5,16.5c-0.174,0-0.342-0.09-0.435-0.252c-0.137-0.239-0.054-0.545,0.186-0.682l3.5-2 c0.24-0.137,0.545-0.054,0.682,0.186C7.571,13.992,7.488,14.297,7.248,14.434z M12,14.5c-0.094,0-0.189-0.026-0.271-0.08l-8.5-5.5 C2.997,8.77,2.93,8.46,3.081,8.229c0.15-0.23,0.459-0.298,0.691-0.147L12,13.405l8.229-5.324c0.232-0.15,0.542-0.084,0.691,0.147 c0.15,0.232,0.083,0.542-0.148,0.691l-8.5,5.5C12.189,14.474,12.095,14.5,12,14.5z M20.934,16.248 C20.842,16.41,20.673,16.5,20.5,16.5c-0.084,0-0.169-0.021-0.248-0.065l-3.5-2c-0.24-0.137-0.323-0.442-0.186-0.682 s0.443-0.322,0.682-0.186l3.5,2C20.988,15.703,21.071,16.009,20.934,16.248z">

    <animate fill="freeze" dur="0.25s" attributeName="opacity" from="1" to="0" begin="mouseover"/>
    <animate fill="freeze" dur="0.25s" attributeName="opacity" from="0" to="1" begin="mouseout"/>

  </path>

</svg>